:SAMPLES-PER-SECOND 30
:FRAME-RANGE 1-3358
:FULLY-SPECIFIED
:DEGREES
3149
root  -27.8082 37.8375 -21.167 -4.85449 84.901 -10.1095
RightUpLeg  -20.9223 -4.14092 -17.5897
RightLeg  33.3722 -0.423741 -0.543822
RightFoot  -12.7557 0.119269 16.6136
RightToes  -1.11029e-010 1.2921e-014 -6.02303e-014
Spine  7.39886 0.828347 9.29526
Spine1  -2.54575 2.64593 -8.57817
HEad  -11.3635 -47.2793 13.3645
LeftShoulder1  1.51706 -2.15862 -21.6617
LeftArm  -19.0084 -5.0279 -40.1771
LeftForeArm  -27.5161 -18.169 -5.79765
LeftHand  0.0541947 6.47067 8.46721
RightShoulder  1.05957 5.09364 4.80298
RightArm  -54.2582 38.406 8.24228
RightForeArm  -5.52835 -3.87311 -10.341
RightHand  0.254094 -6.41329 -28.5583
LeftUpLeg  -20.5528 1.96621 6.46035
LeftLeg  38.3837 -7.64855 -6.07567
LeftFoot  -19.2699 -0.145329 -3.76295
LeftToes  -1.90334e-010 -8.83595e-011 4.99953e-011
3150
root  -27.8906 36.7959 -19.4383 -5.58521 84.5714 -10.1385
RightUpLeg  -20.7017 -2.92622 -22.4159
RightLeg  31.3587 -8.68561 -5.90209
RightFoot  -8.29048 -0.351014 11.0255
RightToes  -1.11029e-010 1.2921e-014 -6.02303e-014
Spine  9.21515 0.979912 8.87297
Spine1  -2.84938 2.89241 -8.45445
HEad  -15.1519 -48.6293 16.7122
LeftShoulder1  1.2844 -1.36315 -21.3878
LeftArm  -18.2269 -3.80464 -39.7064
LeftForeArm  -25.0732 -23.078 -6.10672
LeftHand  0.0450815 6.47557 7.57897
RightShoulder  1.07262 4.99021 5.15713
RightArm  -52.1539 35.7905 10.5653
RightForeArm  -11.3658 -3.78406 -10.2264
RightHand  0.362595 -6.88998 -27.8341
LeftUpLeg  -21.1078 -0.986297 9.70564
LeftLeg  42.0207 -5.30118 -4.69638
LeftFoot  -24.7357 -0.538835 -5.84943
LeftToes  -1.90334e-010 -8.83595e-011 4.99953e-011
3151
root  -27.8603 35.9287 -17.5158 11.8912 82.7543 7.49353
RightUpLeg  -22.2659 -0.46358 -28.4303
RightLeg  30.661 -13.8412 -8.9295
RightFoot  -6.02895 -0.44339 8.65497
RightToes  -1.11029e-010 1.2921e-014 -6.02303e-014
Spine  8.94799 1.12764 7.53405
Spine1  -1.6411 3.26216 -9.37035
HEad  -18.4726 -50.3497 20.8305
LeftShoulder1  1.04811 -0.522701 -21.2417
LeftArm  -19.0974 -3.42352 -37.7995
LeftForeArm  -24.7853 -26.8938 -6.95446
LeftHand  0.0520298 6.54398 7.82487
RightShoulder  1.26135 5.49894 6.74876
RightArm  -52.0067 34.5846 11.6618
RightForeArm  -13.2279 -3.71088 -10.4074
RightHand  0.455314 -7.19906 -28.807
LeftUpLeg  -21.6261 -0.118205 11.348
LeftLeg  45.2834 -5.45061 -5.45519
LeftFoot  -26.9151 -1.12838 -9.41627
LeftToes  -1.90334e-010 -8.83595e-011 4.99953e-011
3152
root  -27.6619 35.4628 -15.2976 10.6024 79.8682 6.29834
RightUpLeg  -23.6623 -1.81217 -29.1378
RightLeg  29.6021 -12.3045 -7.68167
RightFoot  -7.13091 -0.321236 7.4071
RightToes  -1.11029e-010 1.2921e-014 -6.02303e-014
Spine  8.00225 1.54635 8.24461
Spine1  -0.944354 4.02614 -10.855
HEad  -17.1358 -52.4316 18.8258
LeftShoulder1  0.928132 0.0664935 -22.5948
LeftArm  -19.5158 -2.74283 -35.7098
LeftForeArm  -26.5561 -28.3887 -7.39676
LeftHand  0.0742284 6.66065 9.03107
RightShoulder  1.24445 5.68245 6.20981
RightArm  -51.4048 34.5423 12.6137
RightForeArm  -12.6988 -3.80917 -9.92968
RightHand  0.428229 -7.08226 -28.9529
LeftUpLeg  -18.9503 2.03606 15.3457
LeftLeg  44.2061 -6.39231 -6.21292
LeftFoot  -28.0195 -1.77728 -13.223
LeftToes  -1.90334e-010 -8.83595e-011 4.99953e-011
3153
root  -27.4177 35.3322 -12.7493 7.59692 77.7205 3.047
RightUpLeg  -24.9236 -5.13505 -25.9777
RightLeg  31.169 -7.78705 -5.28733
RightFoot  -5.20773 -1.01759 18.1838
RightToes  -1.11029e-010 1.2921e-014 -6.02303e-014
Spine  6.68405 1.51599 8.719
Spine1  -0.892541 4.00055 -11.1324
HEad  -13.6314 -52.0811 15.1748
LeftShoulder1  0.720351 0.880466 -23.7004
LeftArm  -20.9417 -1.49311 -33.7875
LeftForeArm  -27.1482 -28.7001 -7.49927
LeftHand  -0.022087 5.34852 9.94364
RightShoulder  1.24623 5.96152 5.76551
RightArm  -51.9306 36.0411 12.5972
RightForeArm  -9.38552 -1.37187 -8.92519
RightHand  0.247438 -6.33201 -29.9523
LeftUpLeg  -15.0691 2.9513 20.3868
LeftLeg  40.0351 -7.48134 -6.30908
LeftFoot  -26.0172 -2.28151 -18.7772
LeftToes  -1.90334e-010 -8.83595e-011 4.99953e-011
3154
root  -27.2159 35.4534 -9.91268 13.2155 77.8522 8.34094
RightUpLeg  -26.392 -8.19901 -23.3002
RightLeg  36.1781 -4.82135 -4.03114
RightFoot  -8.62371 -0.676194 25.6003
RightToes  -1.11029e-010 1.2921e-014 -6.02303e-014
Spine  5.45038 0.747297 6.53975
Spine1  -1.27608 2.96918 -10.8479
HEad  -12.8287 -51.2512 15.0696
LeftShoulder1  0.747499 0.78532 -23.654
LeftArm  -21.063 -0.33281 -31.59
LeftForeArm  -28.7387 -28.9437 -7.62362
LeftHand  0.0722702 6.84179 7.92413
RightShoulder  1.19936 5.79752 5.45366
RightArm  -52.9471 37.8684 11.1668
RightForeArm  -4.36045 2.25614 -7.50065
RightHand  0.101456 -5.75852 -31.0486
LeftUpLeg  -12.2316 -1.5557 23.4424
LeftLeg  34.2022 -5.86466 -3.91322
LeftFoot  -19.0105 -1.75999 -27.4514
LeftToes  -1.90334e-010 -8.83595e-011 4.99953e-011
3155
root  -27.0273 35.9849 -7.15535 20.928 79.7141 16.4984
RightUpLeg  -26.5328 -14.3553 -19.6552
RightLeg  40.896 -2.02504 -2.15727
RightFoot  -12.0053 0.0274453 18.7544
RightToes  -1.11029e-010 1.2921e-014 -6.02303e-014
Spine  4.53965 -0.0751808 5.0418
Spine1  -0.601961 2.07648 -11.2365
HEad  -13.3214 -51.3752 15.3612
LeftShoulder1  1.02209 -0.165667 -23.4315
LeftArm  -20.043 -1.42705 -31.3463
LeftForeArm  -30.6574 -27.1568 -7.24566
LeftHand  0.0548 6.90801 6.41995
RightShoulder  1.01802 5.34731 3.84407
RightArm  -54.8866 38.4162 8.46838
RightForeArm  -1.03056 6.02663 -6.52811
RightHand  0.055101 -5.5845 -31.4661
LeftUpLeg  -11.306 -9.6978 24.0063
LeftLeg  30.6956 3.11776 2.35492
LeftFoot  -8.49808 0.546827 -19.8207
LeftToes  -1.90334e-010 -8.83595e-011 4.99953e-011
3156
root  -26.731 36.9854 -4.70714 26.0344 81.2354 21.4032
RightUpLeg  -23.6738 -13.5773 -15.8007
RightLeg  38.7363 -4.47627 -4.10732
RightFoot  -13.1489 0.170478 16.3951
RightToes  -1.11029e-010 1.2921e-014 -6.02303e-014
Spine  3.06441 -0.0344818 5.40489
Spine1  -0.563906 2.07886 -11.688
HEad  -10.9853 -52.0052 13.7846
LeftShoulder1  1.14487 -0.633632 -23.0318
LeftArm  -18.7153 -3.02861 -33.6417
LeftForeArm  -32.8352 -25.1917 -6.84723
LeftHand  0.0547715 7.00106 6.10699
RightShoulder  0.829868 4.75702 2.15265
RightArm  -57.1256 39.0949 5.59766
RightForeArm  0.943805 8.14519 -6.26798
RightHand  -0.00490319 -5.36782 -31.5111
LeftUpLeg  -11.1689 -8.54273 21.6647
LeftLeg  29.2562 14.4508 8.94478
LeftFoot  -1.46557 -0.252047 3.01948
LeftToes  -1.90334e-010 -8.83595e-011 4.99953e-011
3157
root  -26.4991 38.1222 -2.53012 34.5513 81.9285 29.6086
RightUpLeg  -20.4315 -11.5634 -12.7478
RightLeg  34.1129 -8.12222 -6.11907
RightFoot  -11.9684 -0.00321591 14.27
RightToes  -1.11029e-010 1.2921e-014 -6.02303e-014
Spine  2.27503 0.0222916 4.98364
Spine1  -1.04184 2.16628 -12.5371
HEad  -9.6033 -51.4981 13.7189
LeftShoulder1  1.20344 -0.85053 -22.9196
LeftArm  -17.6169 -3.89862 -35.9221
LeftForeArm  -34.0241 -24.2027 -6.65572
LeftHand  0.0480448 6.9179 5.91986
RightShoulder  0.687025 4.60193 0.315466
RightArm  -60.6394 39.3155 4.29844
RightForeArm  3.7316 10.2628 -6.39294
RightHand  -0.00347994 -5.37173 -31.9082
LeftUpLeg  -11.0615 -1.96324 16.8925
LeftLeg  27.6253 18.0209 10.2997
LeftFoot  -4.45816 0.117867 -1.51416
LeftToes  -1.90334e-010 -8.83595e-011 4.99953e-011
3158
root  -26.2842 39.3784 -0.651487 39.4847 83.5447 34.1566
RightUpLeg  -16.7331 -10.0723 -9.26014
RightLeg  28.0039 -11.2337 -6.62884
RightFoot  -7.75644 -0.477624 13.5105
RightToes  -1.11029e-010 1.2921e-014 -6.02303e-014
Spine  1.44643 0.114997 5.90149
Spine1  -0.917178 2.22668 -12.3332
HEad  -9.56608 -51.1148 14.1826
LeftShoulder1  1.37475 -1.42018 -23.0653
LeftArm  -17.0337 -4.99732 -38.6
LeftForeArm  -31.967 -22.6445 -6.29406
LeftHand  0.0493996 6.84217 6.2724
RightShoulder  0.558749 4.44163 -1.37996
RightArm  -63.0059 38.996 2.68668
RightForeArm  5.03714 10.8539 -6.70244
RightHand  -0.00517214 -5.36657 -31.6094
LeftUpLeg  -11.2781 4.42735 11.6663
LeftLeg  24.7852 12.903 6.76262
LeftFoot  -6.51322 0.294281 -6.05139
LeftToes  -1.90334e-010 -8.83595e-011 4.99953e-011
3159
root  -26.1439 40.3631 1.014 49.8175 85.7188 43.8975
RightUpLeg  -15.6488 -13.4209 -6.74687
RightLeg  25.7347 -7.42159 -4.10032
RightFoot  -3.14003 -1.05059 14.2853
RightToes  -1.11029e-010 1.2921e-014 -6.02303e-014
Spine  0.890081 0.256398 8.12061
Spine1  -1.12991 2.40213 -12.5668
HEad  -9.77891 -51.4315 14.1392
LeftShoulder1  1.4805 -1.85855 -22.6218
LeftArm  -15.0618 -6.65572 -42.1865
LeftForeArm  -31.1699 -20.5485 -6.13659
LeftHand  0.0489779 6.7376 6.64145
RightShoulder  0.459959 4.35219 -2.7666
RightArm  -64.3845 37.6349 1.02745
RightForeArm  6.0046 10.5209 -7.43296
RightHand  -0.0941266 -5.04216 -31.0182
LeftUpLeg  -11.9044 7.88873 6.5591
LeftLeg  22.5568 4.36513 2.3282
LeftFoot  -9.19757 0.299538 -13.0289
LeftToes  -1.90334e-010 -8.83595e-011 4.99953e-011
3160
root  -26.0264 40.7928 2.74058 47.7966 86.1627 41.4197
RightUpLeg  -16.4768 -11.1967 -6.5696
RightLeg  27.8968 -0.272925 -0.382998
RightFoot  -1.91974 -1.59884 19.0777
RightToes  -1.11029e-010 1.2921e-014 -6.02303e-014
Spine  0.456301 1.15997 9.78579
Spine1  -1.16675 3.53948 -14.3408
HEad  -9.19748 -51.3279 12.8787
LeftShoulder1  1.56257 -2.23472 -22.1303
LeftArm  -13.4112 -7.48938 -45.3262
LeftForeArm  -30.9529 -19.7863 -6.21494
LeftHand  0.0515357 6.79219 6.61674
RightShoulder  0.430065 4.57307 -3.3885
RightArm  -64.5651 36.7822 -0.853054
RightForeArm  6.43214 9.56275 -8.15235
RightHand  -0.0989537 -5.02718 -31.3279
LeftUpLeg  -12.4014 7.79869 2.59874
LeftLeg  22.6539 -5.53974 -2.19507
LeftFoot  -14.5959 -0.460848 -19.1232
LeftToes  -1.90334e-010 -8.83595e-011 4.99953e-011
3161
root  -25.9413 40.7395 4.50494 51.182 87.0376 45.1228
RightUpLeg  -17.1922 -7.95558 -7.89606
RightLeg  32.5959 2.633 1.5746
RightFoot  -6.04672 -0.881574 18.0307
RightToes  -1.11029e-010 1.2921e-014 -6.02303e-014
Spine  0.494624 1.42618 10.0949
Spine1  -0.799864 3.82522 -14.5377
HEad  -8.81299 -50.4598 11.7777
LeftShoulder1  1.50378 -2.02684 -22.1258
LeftArm  -11.3677 -7.79928 -47.0026
LeftForeArm  -31.1119 -20.412 -6.28416
LeftHand  0.0473212 6.71589 6.6016
RightShoulder  0.392607 5.09558 -4.27501
RightArm  -63.3386 36.5452 -1.67353
RightForeArm  5.65095 7.92621 -8.71536
RightHand  -0.114522 -4.97022 -31.2845
LeftUpLeg  -12.3576 6.21885 0.40608
LeftLeg  24.0883 -14.6553 -6.72703
LeftFoot  -17.2987 -1.11832 -23.1797
LeftToes  -1.90334e-010 -8.83595e-011 4.99953e-011
3162
root  -25.8649 40.3941 6.25075 77.8794 88.9494 72.4432
RightUpLeg  -16.5522 -7.52579 -9.91715
RightLeg  34.2479 1.90976 1.15223
RightFoot  -8.98101 -0.384273 15.5834
RightToes  -1.11029e-010 1.2921e-014 -6.02303e-014
Spine  0.945561 1.44472 11.0027
Spine1  -0.765782 3.78905 -14.1521
HEad  -8.23688 -50.4278 11.2181
LeftShoulder1  1.47105 -1.85598 -22.4428
LeftArm  -10.4588 -8.37263 -48.2093
LeftForeArm  -29.3664 -20.6033 -6.25886
LeftHand  0.0368205 6.49375 6.71033
RightShoulder  0.394505 5.20388 -4.31463
RightArm  -62.3525 36.0063 -1.98947
RightForeArm  6.57413 6.61783 -8.79084
RightHand  -0.162237 -4.80291 -31.6577
LeftUpLeg  -11.7558 3.90955 0.433902
LeftLeg  24.9924 -17.2375 -8.25525
LeftFoot  -14.4471 -0.661507 -27.0913
LeftToes  -1.90334e-010 -8.83595e-011 4.99953e-011
